<?xml version="1.0" standalone="no"?>
<!DOCTYPE svg PUBLIC "-//W3C//DTD SVG 20010904//EN"
 "http://www.w3.org/TR/2001/REC-SVG-20010904/DTD/svg10.dtd">
<svg version="1.0" xmlns="http://www.w3.org/2000/svg"
 width="158.000000pt" height="158.000000pt" viewBox="0 0 158.000000 158.000000"
 preserveAspectRatio="xMidYMid meet">
<metadata>
Created by potrace 1.14, written by Peter Selinger 2001-2017
</metadata>
<g transform="translate(0.000000,158.000000) scale(0.100000,-0.100000)"
fill="#000000" stroke="none">
<path d="M737 1524 c-9 -10 -9 -94 1 -95 60 -7 92 -4 93 10 6 89 8 86 -41 89
-25 2 -49 0 -53 -4z"/>
<path d="M848 1381 c-12 -5 -15 -22 -14 -80 l1 -74 -48 0 c-26 0 -50 3 -54 6
-3 4 -6 37 -7 74 l-1 68 -53 3 -53 3 2 -91 c1 -50 0 -92 -2 -93 -18 -12 -83
-37 -93 -37 -11 0 -13 15 -11 63 1 34 0 67 -2 73 -4 12 -77 13 -89 2 -8 -8
-11 -58 -14 -207 -2 -68 -11 -137 -26 -203 -31 -128 -31 -125 0 -247 22 -88
40 -129 111 -253 46 -81 97 -162 113 -180 17 -18 60 -69 97 -113 37 -44 72
-81 79 -82 22 -4 216 251 296 392 44 76 82 148 84 160 2 11 11 50 20 86 26
113 26 119 0 228 -25 105 -27 124 -21 356 l2 70 -60 -1 -60 0 2 -78 c2 -58 -1
-77 -10 -73 -7 3 -31 13 -54 23 l-43 19 0 92 c0 82 -2 93 -17 94 -10 0 -27 2
-39 3 -11 1 -28 0 -36 -3z"/>
</g>
</svg>
