<?xml version="1.0" standalone="no"?>
<!DOCTYPE svg PUBLIC "-//W3C//DTD SVG 20010904//EN"
 "http://www.w3.org/TR/2001/REC-SVG-20010904/DTD/svg10.dtd">
<svg version="1.0" xmlns="http://www.w3.org/2000/svg"
 width="277.000000pt" height="277.000000pt" viewBox="0 0 277.000000 277.000000"
 preserveAspectRatio="xMidYMid meet">
<metadata>
Created by potrace 1.14, written by Peter Selinger 2001-2017
</metadata>
<g transform="translate(0.000000,277.000000) scale(0.100000,-0.100000)"
fill="#000000" stroke="none">
<path d="M665 2010 c-53 -13 -79 -27 -109 -56 -37 -37 -51 -67 -126 -259 -110
-280 -240 -609 -249 -630 -5 -11 -26 -63 -46 -115 -20 -52 -46 -117 -56 -143
l-19 -48 121 3 121 3 90 230 c49 126 95 233 101 237 7 4 68 7 137 7 69 0 130
0 136 1 7 0 10 29 10 83 l-1 82 -102 1 c-57 0 -106 3 -109 7 -12 11 137 367
158 378 10 6 32 8 48 4 30 -7 45 -33 100 -184 54 -151 281 -756 290 -776 5
-11 14 -33 20 -48 l10 -28 107 3 108 3 0 227 c0 138 4 231 10 236 6 6 123 12
260 15 308 7 324 9 392 43 123 63 195 204 186 368 -6 125 -62 225 -158 284
-92 57 -131 61 -537 62 -202 0 -368 -3 -369 -7 -4 -31 -3 -197 1 -204 3 -4
173 -10 377 -11 357 -3 373 -4 399 -24 46 -34 65 -67 69 -120 5 -77 -27 -139
-90 -172 -25 -13 -79 -16 -325 -17 -322 -1 -352 -6 -394 -55 l-24 -30 -26 68
c-14 37 -59 156 -100 266 -41 109 -85 212 -97 230 -26 39 -73 71 -125 85 -44
12 -144 13 -189 1z"/>
<path d="M2450 1390 l1 -620 109 0 110 0 0 620 0 620 -110 0 -110 0 0 -620z"/>
<path d="M1798 1222 l-37 -3 26 -47 c14 -26 51 -90 83 -142 31 -52 78 -134
106 -182 l49 -87 122 -1 122 0 -80 136 c-43 75 -79 140 -79 145 0 5 -4 9 -10
9 -5 0 -10 4 -10 8 0 5 -21 45 -47 91 l-46 82 -81 -3 c-45 -2 -98 -4 -118 -6z"/>
</g>
</svg>
